<svg width="208" height="208" viewBox="0 0 208 208" fill="none" xmlns="http://www.w3.org/2000/svg">
<rect width="208" height="208" fill="#C4C4C4"/>
<path d="M51.312 92.696V106.808C51.312 108.792 51.792 110.264 52.752 111.224C53.7333 112.184 55.088 112.664 56.816 112.664C58.5227 112.664 59.856 112.184 60.816 111.224C61.7973 110.264 62.288 108.792 62.288 106.808V92.696H65.2V106.776C65.2 108.632 64.8267 110.2 64.08 111.48C63.3333 112.739 62.32 113.677 61.04 114.296C59.7813 114.915 58.3627 115.224 56.784 115.224C55.2053 115.224 53.776 114.915 52.496 114.296C51.2373 113.677 50.2347 112.739 49.488 111.48C48.7627 110.2 48.4 108.632 48.4 106.776V92.696H51.312ZM72.9698 100.696C73.5458 99.6933 74.3991 98.8613 75.5298 98.2C76.6818 97.5173 78.0151 97.176 79.5298 97.176C81.0871 97.176 82.4951 97.5493 83.7537 98.296C85.0337 99.0427 86.0364 100.099 86.7618 101.464C87.4871 102.808 87.8498 104.376 87.8498 106.168C87.8498 107.939 87.4871 109.517 86.7618 110.904C86.0364 112.291 85.0337 113.368 83.7537 114.136C82.4951 114.904 81.0871 115.288 79.5298 115.288C78.0364 115.288 76.7138 114.957 75.5618 114.296C74.4311 113.613 73.5671 112.771 72.9698 111.768V123.32H70.0578V97.464H72.9698V100.696ZM84.8738 106.168C84.8738 104.845 84.6071 103.693 84.0738 102.712C83.5404 101.731 82.8151 100.984 81.8978 100.472C81.0018 99.96 80.0098 99.704 78.9218 99.704C77.8551 99.704 76.8631 99.9707 75.9458 100.504C75.0498 101.016 74.3244 101.773 73.7698 102.776C73.2364 103.757 72.9698 104.899 72.9698 106.2C72.9698 107.523 73.2364 108.685 73.7698 109.688C74.3244 110.669 75.0498 111.427 75.9458 111.96C76.8631 112.472 77.8551 112.728 78.9218 112.728C80.0098 112.728 81.0018 112.472 81.8978 111.96C82.8151 111.427 83.5404 110.669 84.0738 109.688C84.6071 108.685 84.8738 107.512 84.8738 106.168ZM94.5948 91.32V115H91.6828V91.32H94.5948ZM107.206 115.288C105.563 115.288 104.07 114.915 102.726 114.168C101.403 113.421 100.358 112.365 99.5898 111C98.8431 109.613 98.4698 108.013 98.4698 106.2C98.4698 104.408 98.8538 102.829 99.6218 101.464C100.411 100.077 101.478 99.0213 102.822 98.296C104.166 97.5493 105.67 97.176 107.334 97.176C108.998 97.176 110.502 97.5493 111.846 98.296C113.19 99.0213 114.246 100.067 115.014 101.432C115.803 102.797 116.198 104.387 116.198 106.2C116.198 108.013 115.792 109.613 114.982 111C114.192 112.365 113.115 113.421 111.75 114.168C110.384 114.915 108.87 115.288 107.206 115.288ZM107.206 112.728C108.251 112.728 109.232 112.483 110.15 111.992C111.067 111.501 111.803 110.765 112.358 109.784C112.934 108.803 113.222 107.608 113.222 106.2C113.222 104.792 112.944 103.597 112.39 102.616C111.835 101.635 111.11 100.909 110.214 100.44C109.318 99.9493 108.347 99.704 107.302 99.704C106.235 99.704 105.254 99.9493 104.358 100.44C103.483 100.909 102.779 101.635 102.246 102.616C101.712 103.597 101.446 104.792 101.446 106.2C101.446 107.629 101.702 108.835 102.214 109.816C102.747 110.797 103.451 111.533 104.326 112.024C105.2 112.493 106.16 112.728 107.206 112.728ZM118.939 106.168C118.939 104.376 119.301 102.808 120.027 101.464C120.752 100.099 121.744 99.0427 123.003 98.296C124.283 97.5493 125.701 97.176 127.259 97.176C128.795 97.176 130.128 97.5067 131.259 98.168C132.389 98.8293 133.232 99.6613 133.787 100.664V97.464H136.731V115H133.787V111.736C133.211 112.76 132.347 113.613 131.195 114.296C130.064 114.957 128.741 115.288 127.227 115.288C125.669 115.288 124.261 114.904 123.003 114.136C121.744 113.368 120.752 112.291 120.027 110.904C119.301 109.517 118.939 107.939 118.939 106.168ZM133.787 106.2C133.787 104.877 133.52 103.725 132.987 102.744C132.453 101.763 131.728 101.016 130.811 100.504C129.915 99.9707 128.923 99.704 127.835 99.704C126.747 99.704 125.755 99.96 124.859 100.472C123.963 100.984 123.248 101.731 122.715 102.712C122.181 103.693 121.915 104.845 121.915 106.168C121.915 107.512 122.181 108.685 122.715 109.688C123.248 110.669 123.963 111.427 124.859 111.96C125.755 112.472 126.747 112.728 127.835 112.728C128.923 112.728 129.915 112.472 130.811 111.96C131.728 111.427 132.453 110.669 132.987 109.688C133.52 108.685 133.787 107.523 133.787 106.2ZM140.564 106.168C140.564 104.376 140.926 102.808 141.652 101.464C142.377 100.099 143.369 99.0427 144.628 98.296C145.908 97.5493 147.337 97.176 148.916 97.176C150.281 97.176 151.55 97.496 152.724 98.136C153.897 98.7547 154.793 99.576 155.412 100.6V91.32H158.356V115H155.412V111.704C154.836 112.749 153.982 113.613 152.852 114.296C151.721 114.957 150.398 115.288 148.884 115.288C147.326 115.288 145.908 114.904 144.628 114.136C143.369 113.368 142.377 112.291 141.652 110.904C140.926 109.517 140.564 107.939 140.564 106.168ZM155.412 106.2C155.412 104.877 155.145 103.725 154.612 102.744C154.078 101.763 153.353 101.016 152.436 100.504C151.54 99.9707 150.548 99.704 149.46 99.704C148.372 99.704 147.38 99.96 146.484 100.472C145.588 100.984 144.873 101.731 144.34 102.712C143.806 103.693 143.54 104.845 143.54 106.168C143.54 107.512 143.806 108.685 144.34 109.688C144.873 110.669 145.588 111.427 146.484 111.96C147.38 112.472 148.372 112.728 149.46 112.728C150.548 112.728 151.54 112.472 152.436 111.96C153.353 111.427 154.078 110.669 154.612 109.688C155.145 108.685 155.412 107.523 155.412 106.2Z" fill="black"/>
</svg>
